<?xml version="1.0" encoding="UTF-8"?>
<svg id="Layer_1" xmlns="http://www.w3.org/2000/svg" version="1.1" viewBox="0 0 1920 1080">
  
  <defs>
    
  </defs>
  <path class="st0" d="M458.48,52.39v68.91l-5.27.8c-194.29,39.78-340.44,211.76-340.44,417.9s146.15,378.12,340.44,417.9l5.27.8v68.91l-18.91-3.38c-225.13-46.09-394.48-245.37-394.48-484.23S214.44,101.86,439.57,55.77l18.91-3.38Z"></path>
  <path class="st0" d="M458.48,212.11v69.74l-24.69,9.03c-97.05,41.04-165.14,137.13-165.14,249.12s68.1,208.08,165.14,249.12l24.69,9.03v69.74l-19.95-5.13c-137.59-42.79-237.48-171.11-237.48-322.76s99.9-279.97,237.48-322.76l19.95-5.13Z"></path>
  <path class="st0" d="M620.07,212.11l19.95,5.13c137.59,42.79,237.48,171.11,237.48,322.76s-99.9,279.97-237.48,322.76l-19.95,5.13v-69.74l24.69-9.03c97.05-41.04,165.14-137.13,165.14-249.12s-68.1-208.08-165.14-249.12l-24.69-9.03v-69.74Z"></path>
  <path class="st0" d="M501.7,45.81h37.18l50.57,2.55c249.4,25.31,444.02,235.76,444.02,491.63,0,238.82-169.53,438.07-394.91,484.15l-18.98,3.39c-.03-22.96-.05-45.92-.08-68.88l5.41-.82c194.5-39.77,340.81-211.72,340.81-417.82,0-220.82-167.96-402.45-383.19-424.29l-5.9-.3v918.77h-74.92V45.81Z"></path>
  <path class="st1" d="M458.48,391.56v296.89l-13.91-8.45c-44.89-30.34-74.41-81.72-74.41-139.99s29.52-109.65,74.41-139.99l13.91-8.45Z"></path>
  <path class="st1" d="M620.07,391.56l13.91,8.45c44.89,30.34,74.41,81.72,74.41,139.99s-29.52,109.65-74.41,139.99l-13.91,8.45v-296.89Z"></path>
</svg>